<?xml version="1.0" encoding="utf-8"?>
<!-- Generator: Adobe Illustrator 26.0.1, SVG Export Plug-In . SVG Version: 6.00 Build 0)  -->
<svg version="1.1" id="Layer_1" xmlns="http://www.w3.org/2000/svg" xmlns:xlink="http://www.w3.org/1999/xlink" x="0px" y="0px"
	 viewBox="0 0 1920 1080" style="enable-background:new 0 0 1920 1080;" xml:space="preserve">
<style type="text/css">
	.st0{fill:#FFFFFF;}
</style>
<path class="st0" d="M481.7,443.6c-3,3.4-6.1,6.9-9.1,10.3c-30.5,33.7-69.1,46.3-113.5,42.3c-52.3-4.8-85-36.6-108.2-80.7
	c-13.5-25.6-17.9-53.5-19-82c-1.1-27.8,0.7-55.2,9.2-81.9c12.3-38.6,37-66.4,73.6-83.7c1.4-0.6,2.8-1.2,3.9-2.2
	c12.1-11.8,27.4-15.4,43.5-16.1c16.9-0.8,33.6,1.1,50,5.2c28.8,7.3,50.2,25.2,69.1,47c1.4,1.6,2.8,3.2,5.2,6
	c0.2-3.3,0.5-5.2,0.3-7.1c-1.1-15.3,4.2-28.8,12.1-41.4c4.8-7.7,12.9-8.7,20.9-9.7c3-0.4,6-0.5,8.9-0.9c13.1-1.6,27.5,8.4,30.8,21.2
	c4.2,16.7,6.2,33.6,6.1,50.9c-0.1,81.1,0,162.2-0.1,243.2c0,21.4-2.3,42.5-6.8,63.4c-9,42-32.2,72.6-71.5,90.9
	c-12.1,5.7-24.7,7.7-37.5,9.2c-24.7,2.9-49.4,4.8-74.2,3.2c-42.8-2.6-81.5-16.3-114.9-43.3c-13-10.5-19.5-25.8-21.6-42.2
	c-1.7-13.5,5.7-24,19.2-30.1c18.5-8.4,38.8-2.9,53.2,14.4c5.1,6.2,9.3,13.1,14.9,18.8c6,6.1,12.5,12.1,19.7,16.5
	c31.1,19.1,63.3,13.9,94.6,1.4c15.2-6.1,27-18.2,31.4-35.5c2.1-8,4.7-16,7-24c0.5-1.7,0.8-3.6,0.9-5.4c1-18.3,2-36.5,3-54.8
	c0-0.8,0-1.6,0-2.4C482.4,444,482,443.8,481.7,443.6z M313.7,320.5c-0.1,2.4-0.2,5-0.3,7.7c-0.9,29.1,9.3,54.6,27.9,76
	c16.5,18.9,39,26.4,64,23.8c25.5-2.6,46.9-13.2,59.5-36.7c4.9-9.1,8.5-19.1,11.8-29c6.2-18.6,4.4-37.9,2.8-56.9
	c-2.3-26.9-13.8-50.6-32.5-69.7c-18.4-18.8-42.1-24.3-67.7-19.8c-24,4.2-41.7,17.3-52.4,39.6C317.1,275.9,311.7,297.3,313.7,320.5z"
	/>
<path class="st0" d="M1582.5,199.5c0-2.1,0-4.2,0-6.2c0-39.1,0-78.3,0-117.4c0-13.7,2.9-26.7,8.3-39.3c3.9-9,10.6-14.4,19.9-16.6
	c8.4-2,16.8-2,25.2,0.2c10.1,2.6,17.5,8.4,22,18c5.2,11.1,7,22.8,7,34.9c0,103.6,0,207.1,0,310.7c0,22.3,0.4,44.6-0.2,66.9
	c-0.3,9.2-2,18.5-4.4,27.4c-6.2,23.3-36.4,31.7-56.2,20.9c-16.6-9-21.2-28.2-18.6-44.3c0.4-2.4,0.5-4.9,0.9-8.9
	c-2.2,1.7-3.4,2.4-4.2,3.4c-17.8,22.1-41.8,35.8-67.1,46.4c-12.6,5.2-27.1,6.9-40.9,8c-37.6,3.1-69.4-11.2-96.2-36.3
	c-17.5-16.4-29.2-37.5-38.4-59.6c-9-21.6-13.2-44.4-14.7-67.5c-2.2-33-0.1-65.6,11.6-96.9c20.8-55.6,62.1-85.5,120-92.7
	c39-4.8,73.7,7.2,103.8,32.4c6.9,5.8,13.8,11.4,20.8,17.1C1581.5,199.8,1582,199.6,1582.5,199.5z M1411.9,313.1
	c1.2,11.8,1.8,28.1,4.6,44.1c5.6,32.8,22,57.7,53.7,71.8c38.1,17,86.5-2.5,100.2-46.7c8.5-27.4,11-55.3,7.1-83.8
	c-3.5-25.5-13.7-47.4-33-64.8c-15.9-14.3-34.3-20.7-55.9-18.9c-16.2,1.3-28.8,9.2-41.2,18.5C1422.1,252.2,1412.9,278.5,1411.9,313.1
	z"/>
<path class="st0" d="M2047.3,1038c-92.2-0.6-167.3-75.5-165.2-173.8c1.9-87.8,75.6-157.6,167.4-156.6
	c92.8,1.1,164.5,75.6,163.4,169.9C2211.9,965.2,2135.8,1038.9,2047.3,1038z"/>
<path class="st0" d="M1496.5,1038.2c-90.9,0.3-165.4-73.9-165.6-165.1c-0.3-92.8,71.7-165.1,164.8-165.5
	c91.6-0.4,165.7,73.3,165.8,165C1661.6,963.8,1587.8,1037.8,1496.5,1038.2z"/>
<path class="st0" d="M-154.3,707.4c91.7,0.3,165.6,74.5,165.2,166c-0.4,91.1-74.9,165.3-165.9,165c-91.5-0.3-165.5-74.8-165.1-166.1
	C-319.8,780.8-245.6,707-154.3,707.4z"/>
<path class="st0" d="M396.7,1037.9c-91.4,0-165.1-74-165-165.4c0.1-93.1,72.1-164.9,165.3-164.8c91.6,0.1,165.1,73.9,164.9,165.4
	C561.6,964.3,487.9,1037.9,396.7,1037.9z"/>
<path class="st0" d="M944.6,1038.1c-91.2-0.1-165.2-74.3-165.1-165.6c0.1-91.4,74-165.1,165.5-165c91.4,0.1,165.4,74.2,165.2,165.4
	C1110.1,964,1035.7,1038.2,944.6,1038.1z"/>
<path class="st0" d="M0.7,326.2c0,23-0.9,46,0.3,68.9c0.8,15,4.8,29.8,7.4,44.7c1.8,10,3.8,19.9,5.1,29.9c0.4,3.1-0.6,6.8-2.1,9.6
	C1.9,496.8-14,506.9-35.1,503c-8.3-1.5-14.6-6-19.5-12.8c-8-11.2-16.3-22.3-24.3-33.6c-2.5-3.6-4.2-4-7.8-1.2
	c-16.9,13.4-34.8,25.4-55,33.2c-33.2,12.9-67.3,20.8-102.9,11c-18.6-5.1-36.1-13.1-49.7-27.4c-39-40.9-30.9-103.1,5.4-133.4
	c19.9-16.6,41.8-26.2,67.4-29.8c23.4-3.2,46.7-7.6,69.6-13.2c20.2-4.9,39.8-12.1,59.6-18.5c1.4-0.4,3.2-2.6,3.1-4
	c-0.3-17.7-4.6-34.3-14.3-49.2c-3.7-5.7-9.8-8.5-16.3-9.9c-26-5.6-51.4-4.5-76.5,5.4c-12,4.7-23,10.4-30.9,21
	c-1.9,2.5-3.5,5.3-5.2,7.9c-3.4,5.1-6.4,10.5-10.3,15.3c-13.1,15.9-32.3,16.8-48.4,3.8c-13.1-10.5-13.4-24.1-10.1-38
	c6.3-26.6,23.2-45.4,47.1-57.8c25.1-13,52-20.1,80.4-21.7c31.6-1.8,63-0.7,93.7,7.5c12.1,3.2,24.3,7.6,35.3,13.6
	c21.5,11.6,32.9,31.2,38.5,54.6c4,16.8,6.2,33.7,6.3,50.9c0,16.5,0,33,0,49.4C0.2,326.2,0.5,326.2,0.7,326.2z M-86.6,329
	c-0.7,0.1-1.5,0.1-2.2,0.3c-13.2,3.4-26.3,7-39.6,10.1c-18.1,4.2-36.2,8.9-54.6,11.8c-10.9,1.8-21.3,4-30.5,9.9
	c-13.1,8.3-20.3,20.5-20.5,36.1c-0.3,20.4,18.5,42.2,40.4,46.9c19.9,4.2,39.1,0.5,57.7-6.7c20.4-7.9,35.1-21.8,42.3-42.9
	c4.1-11.8,6.2-23.8,5.9-36.2c-0.2-9.4-1.9-18.9,1.6-28.1C-86.1,330-86.4,329.6-86.6,329z"/>
<path class="st0" d="M2116.9,452.5c-8.6,6-16.5,11.8-24.6,17.3c-28.8,19.7-61,30.6-95.5,33.6c-23.6,2.1-46.1-2.8-67.6-13.7
	c-24.4-12.4-40.1-31.8-46.8-57.4c-9.4-35.9-0.8-73.9,38.2-101.9c17.3-12.5,36.6-18.3,57.4-21.4c20.9-3.1,41.8-6.5,62.4-11.3
	c22.8-5.4,45.1-12.8,67.7-19.1c4.1-1.1,5.5-3,5.4-7.3c-0.7-16.5-4.7-32.1-13.7-45.8c-3.2-4.8-8.8-8.6-14.1-11.3
	c-11.2-5.8-23.7-6.9-36-6.5c-11.2,0.4-22.6,1.9-33.6,4.2c-21,4.5-34.4,19.1-45.7,36.3c-3,4.6-6,9.2-9.1,13.7
	c-11.5,17-41.1,22.5-56.9-2.8c-5.5-8.9-5.3-18.6-3.3-28.1c5.1-23.8,19.1-41.8,39.4-54.3c25.3-15.5,53-24.6,82.9-26.4
	c30.8-1.9,61.3-0.8,91.4,6.1c20.5,4.7,39.6,12.2,55,27.6c14.6,14.5,22,32,25,51.6c2.2,14.4,3.9,29.1,4.1,43.6
	c0.6,33.3,0.2,66.6,0.2,99.9c0,21.4,3.8,42.3,9,63.1c2.3,9.3,3.9,18.9,4.7,28.4c0.7,8.1-3.3,14.5-9.4,20
	c-11.1,9.8-23.4,15.1-38.4,12.6c-8.1-1.4-14.7-5.3-19.6-11.8c-7.9-10.7-15.7-21.5-23.6-32.2C2120.2,457,2118.6,454.9,2116.9,452.5z
	 M2111.8,328.9c-2.9,0.9-6.1,2.3-9.5,3c-20.1,4.4-40.3,8.7-60.4,13c-10.2,2.2-20.6,4.2-30.6,7c-9,2.6-18.5,5-26.4,9.7
	c-12.6,7.4-19.4,19.5-19.8,34.4c-0.6,21.2,17.7,43.4,40.1,48c23.5,4.8,45.9,0,66.7-10.7c23.7-12.2,35.4-33.2,38.2-59
	C2111.6,359.5,2111.2,344.4,2111.8,328.9z"/>
<path class="st0" d="M940.6,500.5c-60.8-0.9-110.9-23.8-145.7-75.5c-16-23.8-23.7-50.9-26.9-79.2c-4.3-38,0.8-75,17.1-109.6
	c17-36.2,43.3-63.1,82.7-76.3c28.7-9.6,57.7-14.8,87.8-12.4c41.8,3.4,79.5,17,108.3,48.9c14.4,16,27.1,33.3,34.9,53.7
	c3.5,9.1,8.7,17.7,11.3,27.1c10.7,37.8,8.5,75.3-4.1,112.4c-8.6,25.4-22.2,47.5-40.8,66.7c-10.8,11.1-23.5,19.1-37.6,25
	c-21,8.7-42.2,16.5-65.1,18.1C955.4,499.9,948.3,500.1,940.6,500.5z M1032.4,324.8c-0.9-11.1-0.9-22.3-3.1-33.1
	c-4.8-23.9-15.3-45.5-33.4-61.8c-41-36.9-110-17.1-128.3,36.3c-10.3,30-11.8,60.5-5.7,91.5c3.1,15.6,6.7,31.1,16.5,44
	c19.4,25.6,45.3,36.7,77.3,32.9c17-2,32.6-8.5,43.9-21.6c8.4-9.7,15.8-20.6,22-31.9C1030.9,363.7,1033,344.5,1032.4,324.8z"/>
</svg>
