<?xml version="1.0" encoding="utf-8"?>
<!-- Generator: Adobe Illustrator 26.0.1, SVG Export Plug-In . SVG Version: 6.00 Build 0)  -->
<svg version="1.1" id="Layer_1" xmlns="http://www.w3.org/2000/svg" xmlns:xlink="http://www.w3.org/1999/xlink" x="0px" y="0px"
	 viewBox="0 0 2597.45 1183.09" style="enable-background:new 0 0 2597.45 1183.09;" xml:space="preserve">
<style type="text/css">
	.st0{fill:#FFFFFF;}
</style>
<path class="st0" d="M23.64,798.36c0.74-5.05,1.65-10.08,2.2-15.16c2.37-22.11,9.48-42.86,18.8-62.82
	c34.16-73.16,67.76-146.6,103.12-219.17c38.07-78.14,77.71-155.52,117.05-233.04c11.03-21.74,24.07-42.3,42.75-58.61
	c21.15-18.47,45.37-30.07,73.5-32.87c46.76-4.65,84.61,12.13,114.87,47.56c11.78,13.8,21.23,29.06,29.39,45.11
	c37.03,72.9,74.46,145.6,110.59,218.94c29.5,59.88,57.5,120.49,85.88,180.92c10.75,22.89,21.05,46.01,30.92,69.29
	c8.86,20.91,13.76,42.99,12.31,65.68c-5.38,84.61-56.68,147.27-135.59,165.1c-36.92,8.34-72.78,2.49-107.51-11.27
	c-32.97-13.07-61.3-33.5-87.35-57.12c-12.7-11.51-24.6-23.93-36.59-36.19c-3.09-3.16-4.85-3.35-7.9-0.06
	c-20.65,22.27-42.36,43.41-67.08,61.24c-28.94,20.88-60.23,36.31-95.53,43.61c-92.63,19.15-184.18-42.76-200.43-136.1
	c-0.99-5.71-1.31-11.54-2.06-17.3c-0.25-1.94-0.87-3.83-1.32-5.74C23.64,806.36,23.64,802.36,23.64,798.36z M73.44,806.13
	c0.89,7.91,1.28,15.92,2.77,23.71c9.73,50.94,53.89,93.76,113.82,95.92c24.31,0.88,47.19-4.95,68.9-15.6
	c39.78-19.51,71.41-49.13,100.8-81.53c2.09-2.31,1.56-3.95-0.08-6.04c-5.05-6.42-10.09-12.84-14.97-19.38
	c-29.66-39.85-55.91-81.67-72.01-129.04c-10.08-29.66-16.51-59.86-11.76-91.59c5.01-33.47,19.97-61.28,46.47-82.28
	c34.76-27.53,74.54-35.97,117.57-27.08c42,8.67,73.23,32.43,92.21,71.23c15.18,31.04,14.67,63.75,8.44,96.69
	c-7.11,37.61-23.02,71.78-42.28,104.54c-15.65,26.63-33.73,51.56-53.03,75.63c-1.64,2.04-3.15,3.69-0.67,6.38
	c26.79,28.96,54.99,56.25,89.7,75.84c28.88,16.29,59.48,24.66,92.88,20.35c54.01-6.98,101.54-52.02,103.78-116.4
	c0.71-20.4-3.04-40.23-11.38-58.82c-18.4-41-37.05-81.89-56.15-122.57c-50.88-108.36-103.85-215.7-158.87-322.01
	c-7.4-14.31-14.97-28.8-24.55-41.66c-21.79-29.27-51.49-40.7-87.45-33.33c-26.34,5.4-44.88,22.01-57.99,44.67
	c-10.33,17.86-19.95,36.16-29.23,54.59c-37.73,74.96-75.81,149.77-112.61,225.19c-29.86,61.19-58.21,123.11-86.95,184.84
	C80.87,759.75,73.24,781.89,73.44,806.13z M394.65,785.46c2.05-2.53,3.51-4.11,4.73-5.86c12.19-17.48,25.11-34.51,36.33-52.59
	c21.43-34.53,39.56-70.56,43.78-111.93c1.66-16.31,0.25-32.31-5.89-47.56c-16.13-40.06-56.33-55.15-93.47-49.16
	c-39.95,6.45-70.37,35.57-70.81,83.95c-0.19,21.38,4.91,41.86,12.36,61.76c14.22,37.93,35.66,71.75,59.64,104.1
	C385.45,773.75,389.8,779.18,394.65,785.46z"/>
<path class="st0" d="M2583.64,621.36c-0.44,2.76-1.12,5.5-1.3,8.27c-3.48,53.17-26.41,95.25-71.53,124.34
	c-20.18,13.01-42.6,19.9-66.55,22.25c-23.76,2.33-46.62-0.13-67.65-11.98c-7.61-4.28-14.26-10.27-21.31-15.53
	c-1.31-0.98-2.42-2.21-5.11-3.13c0,3.31,0.01,6.62,0,9.92c-0.02,9.57-3.78,13.42-13.19,13.43c-18.5,0.02-36.99-0.13-55.49,0.1
	c-4.49,0.06-5.61-1.45-5.61-5.75c0.09-143.97,0.1-287.94-0.01-431.91c0-4.57,1.34-6.1,5.95-6.06c21.16,0.19,42.32,0.19,63.49,0
	c4.62-0.04,5.95,1.47,5.94,6.05c-0.14,51.82-0.09,103.65-0.09,155.47c0,1.91,0,3.83,0,6.81c1.99-1.47,3.1-2.1,3.98-2.97
	c17.51-17.16,38.74-25.99,62.97-27.97c77.71-6.35,146.99,45.42,161.79,125.09c1.48,7.97,1.66,16.18,2.53,24.27
	c0.23,2.11,0.79,4.19,1.19,6.29C2583.64,619.36,2583.64,620.36,2583.64,621.36z M2351.16,618.88c0,13.16,1.07,26.43-0.29,39.44
	c-1.44,13.69,4.62,22.5,14.6,29.9c4,2.97,8.14,5.82,12.51,8.19c17.87,9.68,37.06,11.28,56.72,8.12
	c17.58-2.82,33.37-9.71,46.85-21.76c27.81-24.85,32.75-70.84,17.78-103.85c-22.91-50.53-103.16-67.01-145.74-17.26
	c-1.54,1.79-2.3,4.79-2.33,7.24C2351.07,585.57,2351.17,602.23,2351.16,618.88z"/>
<path class="st0" d="M1694.2,745.88c0,3.97,0.07,7.93-0.02,11.9c-0.15,7.12-4.12,11.12-11.28,11.15
	c-19.33,0.07-38.66-0.09-57.99,0.12c-4.25,0.04-4.94-1.74-4.92-5.38c0.11-23.33,0.06-46.66,0.06-69.99c0-120.15,0-240.29,0-360.44
	c0-7.81,0-7.82,7.99-7.82c20.33,0,40.66,0.12,60.99-0.09c4.79-0.05,6.26,1.41,6.24,6.25c-0.16,51.49-0.1,102.98-0.1,154.47
	c0,2.13,0,4.27,0,7.69c2.03-1.48,3.23-2.16,4.19-3.09c17.54-17.13,38.75-26.17,62.99-27.89c48.96-3.49,90.8,12.25,124.42,48.13
	c22.18,23.68,34.41,52.27,38.66,84.4c4.53,34.23,0.29,67.23-15.39,98.03c-23.43,46.02-61.22,73.14-112.15,81.67
	c-26.21,4.39-51.9,2.9-75.72-10.04c-8.09-4.39-15.12-10.75-22.59-16.26c-1.4-1.03-2.63-2.3-3.94-3.47
	C1695.16,745.44,1694.68,745.66,1694.2,745.88z M1695.18,618.92c0,13.33,0.9,26.73-0.26,39.96c-1.06,12.08,3.5,20.47,12.46,27.43
	c1.18,0.92,2.28,1.95,3.48,2.85c24.34,18.27,51.35,20.41,79.72,12.66c25-6.83,43.67-21.72,54.02-45.82
	c6.68-15.56,8.58-31.92,6.59-48.84c-2.55-21.75-11.02-40.36-27.94-54.54c-17.89-14.98-38.92-20.92-62.03-20.77
	c-25.43,0.18-45.83,11.03-62.79,29.16c-1.91,2.04-3.06,5.57-3.11,8.44C1695.03,585.93,1695.18,602.43,1695.18,618.92z"/>
<path class="st0" d="M1159.1,744.62c-6.11,5.2-10.76,9.78-16.01,13.51c-17.91,12.74-38.07,18.57-59.98,18.82
	c-36.55,0.42-69.68-9.74-98.47-32.51c-31.19-24.67-49.34-57.2-55.58-96.27c-5.67-35.56-2.09-70.14,14.38-102.55
	c22.69-44.67,59.11-71.48,108.27-80.9c24.82-4.75,49.29-4.07,72.97,5.83c11.18,4.68,21.27,11.02,29.85,19.64
	c1.01,1.02,2.18,1.87,4.56,3.88c0-4.54-0.02-7.75,0-10.95c0.06-8.83,4.41-13.27,13.16-13.29c18.16-0.04,36.33-0.01,54.49-0.01
	c6.63,0,6.65,0.01,6.65,6.57c0.01,74.15,0,148.3,0,222.45c0,21.33-0.13,42.66,0.1,63.99c0.05,4.81-1.39,6.28-6.22,6.21
	c-18.49-0.26-36.99-0.09-55.49-0.11c-8.81-0.01-12.62-3.9-12.69-12.86C1159.08,752.66,1159.1,749.23,1159.1,744.62z M1159.1,619.61
	c0-13.99-0.86-28.05,0.27-41.94c0.93-11.52-4.02-18.95-12.32-25.37c-1.45-1.12-2.83-2.33-4.31-3.41
	c-20.68-15.07-43.78-19.38-68.63-14.87c-28.53,5.18-50.81,19.34-63.41,46.31c-7.27,15.56-9.24,32.02-7.61,49.12
	c2.24,23.5,11.38,43.39,30.23,57.95c20.77,16.05,44.66,21.36,70.5,18.48c20.03-2.24,36.67-11.17,50.34-25.89
	c3.42-3.69,5.17-7.63,5.06-12.93C1158.88,651.26,1159.1,635.43,1159.1,619.61z"/>
<path class="st0" d="M2031.17,493.62c1.81-1.08,2.73-1.43,3.39-2.05c19.14-18.27,42.19-27.09,68.35-29.04
	c24.41-1.83,47.88,1.45,69.84,12.35c35.37,17.55,55.95,45.78,59.46,85.55c1.07,12.08,1.84,24.22,1.88,36.34
	c0.2,55.49,0.09,110.98,0.08,166.47c0,6.67-0.01,6.68-6.48,6.68c-20.66,0-41.33,0-61.99,0c-6.64,0-6.65-0.01-6.65-6.51
	c0-54.16,0.01-108.31-0.01-162.47c-0.01-13.18-1.01-26.27-5.16-38.89c-6.06-18.43-19.54-27.95-38.12-30.92
	c-24.98-4-47.54,1.8-67.61,17.23c-0.79,0.61-1.56,1.25-2.37,1.84c-6.98,5.12-9.97,11.34-9.9,20.63
	c0.49,63.82,0.26,127.64,0.26,191.46c0,6.65-0.01,6.66-6.52,6.66c-20.83,0.01-41.66-0.12-62.49,0.09c-4.63,0.05-6.37-1.06-6.36-6.05
	c0.13-95.81,0.12-191.63,0.03-287.44c0-4.23,1.03-5.88,5.58-5.81c17.33,0.24,34.66,0.06,51.99,0.11
	c8.19,0.02,12.67,4.51,12.79,12.64C2031.21,485.89,2031.17,489.3,2031.17,493.62z"/>
<path class="st0" d="M1483.47,493.31c1.49-1.31,2.79-2.45,4.08-3.59c19.98-17.52,42.89-27.96,69.8-27.74
	c8.58,0.07,17.18,1.68,25.7,3c1.54,0.24,3.93,2.53,3.94,3.9c0.23,21.33,0.15,42.66,0.1,63.99c0,0.46-0.35,0.91-0.73,1.84
	c-3.8-0.75-7.63-1.66-11.5-2.25c-24.2-3.69-47.77-2.61-69.76,9.67c-1.89,1.05-3.67,2.29-5.53,3.39
	c-11.68,6.94-17.05,15.9-16.81,30.75c1,62.31,0.42,124.65,0.42,186.98c0,6.64-0.01,6.64-6.51,6.65c-21,0-42-0.11-63,0.09
	c-4.37,0.04-5.7-1.22-5.69-5.65c0.11-96.33,0.11-192.66,0-288.99c-0.01-4.45,1.37-5.68,5.71-5.63c18.5,0.21,37,0.07,55.5,0.1
	c9.01,0.02,12.98,4.08,13.04,13.16c0.02,2.83,0.07,5.66,0.19,8.49C1482.43,491.9,1482.86,492.29,1483.47,493.31z"/>
<path class="st0" d="M1358.24,619.34c0,47.66,0,95.31,0,142.97c0,6.63-0.01,6.64-6.52,6.64c-21,0.01-41.99-0.11-62.99,0.09
	c-4.33,0.04-5.72-1.17-5.72-5.62c0.12-95.98,0.11-191.96,0.01-287.94c0-4.31,1.13-5.78,5.61-5.74c21.16,0.21,42.33,0.23,63.49-0.01
	c4.77-0.05,6.25,1.26,6.23,6.14C1358.17,523.69,1358.24,571.51,1358.24,619.34z"/>
<path class="st0" d="M1269.95,375.66c-0.03-28.83,21.71-50.88,50.19-50.94c28.61-0.05,51.97,22.81,52.02,50.92
	c0.06,27.83-23.39,51.27-51.28,51.25C1292.67,426.88,1269.98,404.06,1269.95,375.66z"/>
</svg>
