<?xml version="1.0" encoding="utf-8"?>
<!-- Generator: Adobe Illustrator 26.0.1, SVG Export Plug-In . SVG Version: 6.00 Build 0)  -->
<svg version="1.1" id="Layer_1" xmlns="http://www.w3.org/2000/svg" xmlns:xlink="http://www.w3.org/1999/xlink" x="0px" y="0px"
	 viewBox="0 0 1920 1080" style="enable-background:new 0 0 1920 1080;" xml:space="preserve">
<style type="text/css">
	.st0{fill:#FFFFFF;}
</style>
<path class="st0" d="M1855.8,459.5c18.6-21.3,40.6-34.2,69.3-33.6c29.2,0.6,50.9,12.6,63.8,40.4c2.1-2.3,3.6-4,5.1-5.7
	c25.8-30.9,58.8-40.6,97.3-31.6c24.7,5.8,39.6,22.7,45.8,46.7c3.1,12,4.8,24.6,5,37c0.6,47.6,0.2,95.3,0.3,143
	c0,4.7-1.1,6.5-6.1,6.3c-11.3-0.6-22.7,0.3-33.9-1.2c-14.7-1.9-22.1-11-22.7-26c-0.5-12-0.2-24-0.3-36c-0.2-27.8-0.3-55.6-0.7-83.5
	c-0.1-4.4-0.9-9-2-13.3c-3.2-12.3-10.8-18.2-23.6-18.2c-18.8,0-32.2,9.6-41.6,25.2c-9.6,15.8-12.8,33.5-12.9,51.7
	c-0.2,31.3,0,62.6-0.1,94c0,7.1,0,7.1-7.2,7.1c-16.3,0-32.7,0-49,0c-6.7,0-6.7,0-6.7-6.5c0-43.2,0.1-86.3-0.1-129.5
	c0-6.1-0.5-12.4-1.8-18.3c-4.2-19.5-19.8-28.2-38.9-22c-13.2,4.3-21.6,14-28,25.7c-7.6,14.2-11.3,29.6-11.4,45.6
	c-0.3,32.8-0.1,65.6-0.1,98.5c0,6.5,0,6.5-6.7,6.5c-16.7,0-33.3-0.1-50,0.1c-4.4,0.1-6.1-1-6.1-5.8c0.2-73.1,0.2-146.3,0.1-219.4
	c0-4.4,1.3-5.9,5.7-5.7c10.3,0.5,20.7-0.2,30.9,0.9c12.9,1.4,21.3,8.8,24,21.9c0.2,1.1,0.6,2.2,1,3.3
	C1854.5,457.6,1854.9,458,1855.8,459.5z"/>
<path class="st0" d="M-222.6,491.9c2.3,1.3,4,2.4,5.8,3.3c27.4,14.8,40.2,38.7,41.3,68.9c1.7,45.5-24.9,79.9-69.6,92
	c-13.6,3.7-27.4,5.3-41.5,5.2c-35.1-0.1-70.3-0.1-105.4,0.1c-4.7,0-6.3-1.2-6.3-6.1c0.1-93,0.1-185.9,0.1-278.9
	c0-21.3,13.9-35.7,35.1-35.9c28.8-0.2,57.6-0.3,86.4,0.5c19.6,0.5,38,6.1,54.7,17c44.2,28.8,43.1,93.8,10.4,123.9
	C-215,485.1-218.5,488.2-222.6,491.9z M-336.3,606.7c20.4,0,39.9,0.9,59.3-0.2c21-1.3,33.5-13.4,36.9-33.6c0.8-4.7,0.7-9.6,0.5-14.4
	c-0.9-19.7-13.6-34.9-33.2-37.2c-14-1.7-28.2-0.9-42.4-1.1c-13.3-0.1-19.6,5.6-20.9,18.8c-0.2,2.3-0.2,4.7-0.2,7
	c0,18.2,0,36.3,0,54.5C-336.3,602.3-336.3,604.2-336.3,606.7z M-336,469.5c1.5,0.2,2.6,0.4,3.7,0.4c15.8,0,31.6,0.1,47.4-0.1
	c3.3,0,6.7-0.7,9.8-1.7c15.9-5.1,22.5-17.3,24-32.9c1.9-20.6-7.5-39.6-32.1-41.5c-11.4-0.9-23-0.9-34.4-0.2
	c-11.7,0.7-16.8,6.4-18.3,18c-0.3,2.1-0.3,4.3-0.3,6.5c0,15.3,0,30.6,0,45.9C-336.2,465.8-336.1,467.5-336,469.5z"/>
<path class="st0" d="M972.9,730.2c5.4-12.8,10.4-25.6,16.4-38c3.4-7.2,10.3-10,18.1-8.4c10.2,2.2,20.2,5.6,30.5,7.5
	c16.2,3,32.5,3.3,48.3-2.4c22.5-8.2,29.6-27.1,28.5-47c0-0.4-0.4-0.8-0.8-1.5c-0.8,0.4-1.6,0.6-2.2,1.1
	c-28,23.5-85.7,21.7-118.5-6.9c-21.4-18.6-33-42.4-37.4-69.8c-4.4-27.7-2.3-54.9,9-80.8c19.1-43.9,59.3-63,102.9-59.5
	c19.4,1.6,37.1,7.6,52.1,20.6c0.5,0.4,1.1,0.7,1.8,1.1c0.5-0.5,1.1-0.9,1.3-1.5c5.3-10.2,14.2-14.8,25.2-15.3c10-0.5,20-0.1,30-0.3
	c3,0,3.7,1.4,3.6,4c-0.1,2.5,0,5,0,7.5c0,67-0.1,134-0.1,201c0,23.2-4.7,45-18.2,64.3c-16.5,23.5-39.9,36.4-67.1,42.7
	c-41.8,9.7-81.7,3.2-119.7-16.1C975.5,731.9,974.6,731.2,972.9,730.2z M1068.8,482.5c-20.8,0.2-34.7,8.6-41.7,26.8
	c-8.4,22-7.6,44.2,2.7,65.5c8.8,18.3,25.6,26.3,47.9,24.2c17.4-1.7,30.3-13.1,35.3-32c4.6-17.4,4.7-35,0.1-52.4
	c-4.1-15.5-13.4-26.3-29.5-30C1078.7,483.4,1073.7,483.1,1068.8,482.5z"/>
<path class="st0" d="M437.9,662.3c-2.2,0.2-3.9,0.4-5.5,0.4c-18.7,0-37.3-0.1-56,0.1c-4.3,0-5.7-1.2-5.7-5.7
	c0.1-103.8,0.1-207.6,0-311.4c0-4,1.1-5.7,5.3-5.5c11.3,0.4,22.7,0,34,0.6c19,1.1,27.7,10.2,27.8,29.4c0.2,43.3,0.1,86.6,0.1,130
	c0,8.7-0.8,7.3,7.9,7.7c10.3,0.5,17.4-3.1,23-12.3c12.7-20.9,26.4-41.2,39.7-61.8c1.5-2.4,2.9-4,6.2-4c22.7,0.1,45.3,0.1,68,0.1
	c0.9,0,1.9,0.2,3.9,0.5c-24.4,36-48.3,71.3-71.8,106c7.3,13.2,14.8,27,22.6,40.7c15.2,26.4,30.7,52.7,46,79c1.1,1.9,2.2,3.7,3.5,6
	c-1.6,0.3-2.6,0.8-3.7,0.8c-18.2-0.1-36.3-0.2-54.5-0.4c-14-0.1-24.2-6.7-30.8-18.8c-7.2-13.1-14.2-26.4-21.2-39.6
	c-5-9.4-10.4-18.7-14.9-28.3c-3.3-7.1-8.5-9.8-15.8-9.5c-2.4,0.1-4.9,0-8,0C437.9,598.4,437.9,630.2,437.9,662.3z"/>
<path class="st0" d="M777.6,662.2c-2.3,0.2-4,0.4-5.6,0.4c-18.5,0-37-0.1-55.5,0.1c-4,0-5.5-1-5.5-5.3c0-74-0.1-147.9-0.4-221.9
	c0-4.8,1.7-5.9,6.1-5.8c7.3,0.3,14.7,0.1,22,0.1c22.2,0.1,29.6,5,37.8,26c1.8-1.7,3.5-3.2,5.1-4.9c30-30.9,77.9-31.4,106.9-18.6
	c23.8,10.5,35.6,30.3,40,54.9c1.7,9.3,2.3,18.9,2.4,28.3c0.3,46.8,0.3,93.6,0.4,140.4c0,6.6,0,6.7-6.5,6.6
	c-9.8-0.1-19.7,0.1-29.5-0.4c-19.9-0.9-30.3-11.2-30.8-31.2c-0.5-21.8-0.2-43.6-0.3-65.5c-0.1-16.3-0.3-32.6-0.5-49
	c0-1.5-0.1-3-0.3-4.5c-3.3-22-14.7-27.9-37.5-24.5c-24.4,3.7-41,21.4-46,47.7c-1.4,7.2-2,14.5-2,21.8c-0.2,32.8-0.1,65.6-0.1,98.5
	C777.6,657.6,777.6,659.6,777.6,662.2z"/>
<path class="st0" d="M225.2,666.4c-46.4-1.7-83.7-19.2-106.8-60.8c-29.1-52.3-15-121.9,31.2-156.4c25.3-18.9,54.1-25.9,85.2-23.8
	c29.2,1.9,55.2,12,76.6,32.5c21.2,20.3,32.5,45.6,35.2,74.7c3,32.6-4,62.7-24.4,88.8c-20.2,25.9-47.5,39.6-79.7,43.7
	C236.7,665.8,230.8,666,225.2,666.4z M281.8,545.5c0.2-10.4-1.5-20.9-6-30.7c-9.2-20-24.5-31.6-46.8-32.9
	c-22.6-1.3-40.3,7.6-51,27.5c-12.6,23.6-12.5,48.2-0.2,71.9c9.6,18.6,25.9,27.9,46.8,28.1c20.7,0.3,37.1-8.2,48-26.2
	C279.3,571.8,281.9,559.2,281.8,545.5z"/>
<path class="st0" d="M-156.7,556.8c0-74,40.1-121.3,102.3-130.4c48.6-7.1,97.2,11.4,123.3,53.7C102,533.8,88.3,608,38.4,643.6
	c-25.7,18.3-54.7,24.6-85.8,22c-29.2-2.5-54.9-13.3-75.7-34.3C-146.5,607.5-156.5,578.4-156.7,556.8z M-91.4,541
	c-0.1,15.2,1.6,25.5,6,35.2c9.6,21.3,26.1,33,49.6,33.3c23.1,0.2,40.7-9.9,50.3-31.3c10.2-22.7,10-45.8-1.6-68
	c-16.3-31.4-59.2-38.6-85-14.5C-86.4,509.1-91.2,526.5-91.4,541z"/>
<path class="st0" d="M1768.3,545.7c0.1,60.1-36.8,106.1-95.7,117.4c-39.4,7.5-76-0.1-107.2-26.7c-23.4-20-35.5-46.2-38.7-76.6
	c-2.7-25.6,1.1-50.3,13.3-73.1c16-29.8,40.8-49,73.5-57c37.1-9,72.6-4.9,104.8,16.8c28.9,19.5,44.5,47.4,49.1,81.8
	c0.3,2.3,0.7,4.6,0.8,6.9C1768.4,538.7,1768.3,542.2,1768.3,545.7z M1590.3,543.8c0.1,12.6,1.8,22.9,6.1,32.6
	c9.4,20.8,25.6,32.8,48.6,33.5c23.4,0.7,41.6-9.1,51.8-30.6c10.5-22.1,10.6-45-0.1-67.1c-16.1-33.5-58.9-41.8-86.5-17
	C1595.4,508.6,1590.7,526.4,1590.3,543.8z"/>
<path class="st0" d="M1493,579.5c4.7,7.7,9.3,15.3,14,23c3.2,5.3,6.1,10.8,9.6,15.8c2.8,4,2.4,6.7-1.1,10.2
	c-15.5,15.4-33.4,26.7-54.3,32.5c-45.3,12.7-87.7,7.1-124.7-23.4c-24.9-20.6-37.3-48.1-39.8-80.1c-1.9-24.3,1.8-47.6,13.6-69.1
	c18.4-33.7,47.4-53,84.7-60c28.5-5.3,56.5-3.2,82.9,9.9c14,6.9,25.5,16.8,28,33c1.8,11.6,1,23.6,1.1,35.4c0,1-2.1,3-3.3,3
	c-11,0.2-22,0.6-33-0.1c-9.2-0.5-16.4-5.4-19.3-14.4c-2.5-8-8.2-11.3-15.4-13.3c-26.5-7.2-55.8,5.3-68.3,29.9
	c-10.6,20.9-11.6,42.8-1.8,64.2c10.8,23.7,31.4,33.8,56.3,35c25.9,1.3,46.9-10.5,65.5-27.4c1.4-1.3,2.3-3.3,3.5-4.9
	C1491.7,578.9,1492.3,579.2,1493,579.5z"/>
<path class="st0" d="M606.4,430.6c14.3,0,27.7-1.1,40.8,0.3c15.8,1.7,24.2,12,25.4,28c0.2,3,0.3,6,0.3,9c0,62.8-0.1,125.6-0.1,188.4
	c0,6.5,0,6.5-6.6,6.5c-17.8,0-35.6-0.2-53.5,0.1c-5.2,0.1-6.3-1.6-6.3-6.5c0.1-73.3,0-146.6,0-219.9
	C606.4,434.5,606.4,432.5,606.4,430.6z"/>
<path class="st0" d="M675.7,369.3c-0.1,21.4-17.6,38.7-38.9,38.6c-21.3-0.1-38.4-17.6-38.4-39.1c0.1-21.4,17.7-38.8,38.9-38.6
	C658.7,330.4,675.8,347.8,675.7,369.3z"/>
<path class="st0" d="M1284.4,626.7c-0.1,21-17.2,38.1-38.2,38.1c-20.9,0-38-17.2-38.2-38.2c-0.2-21.2,17-38.5,38.3-38.4
	C1267.7,588.2,1284.5,605.2,1284.4,626.7z"/>
</svg>
