<?xml version="1.0" encoding="utf-8"?>
<!-- Generator: Adobe Illustrator 26.0.1, SVG Export Plug-In . SVG Version: 6.00 Build 0)  -->
<svg version="1.1" id="Layer_1" xmlns="http://www.w3.org/2000/svg" xmlns:xlink="http://www.w3.org/1999/xlink" x="0px" y="0px"
	 viewBox="0 0 1920 1080" style="enable-background:new 0 0 1920 1080;" xml:space="preserve">
<style type="text/css">
	.st0{fill:#FFFFFF;}
</style>
<path class="st0" d="M1547.05,521.53c0,111.85-90.66,202.11-203.58,201.47c-111.21-0.63-201.44-91.88-199.92-204.62
	c1.49-110.52,92.56-200.9,205.83-198.75C1458.96,321.71,1547.28,411.55,1547.05,521.53z M1417.5,521.35
	c0-39.33-32.32-72.09-71.14-72.12c-40.65-0.04-73.21,32.03-73.21,72.11c0,39.65,32.53,72.16,72.19,72.16
	C1385.03,593.5,1417.5,561.04,1417.5,521.35z"/>
<path class="st0" d="M784.14,521.71c0,111.86-90.6,201.97-203.65,201.28c-110.78-0.67-200.76-91.37-199.7-203.81
	c1.04-110.83,92.13-201.83,205.95-199.55C697.69,321.86,784.9,413.41,784.14,521.71z M654.5,521.57
	c0.01-39.7-32.13-72.31-71.29-72.34c-40.29-0.03-72.83,32.08-72.89,71.9c-0.05,39.68,32.43,72.36,71.95,72.37
	C622.14,593.51,654.49,561.29,654.5,521.57z"/>
<path class="st0" d="M1035.14,718.11c-47.71,0-94.79,0-142.64,0c0-2.01,0-3.94,0-5.87c0-38.49,0.03-76.98-0.07-115.46
	c-0.01-2.55-0.52-5.35-1.65-7.61c-29-57.66-58.11-115.27-87.21-172.89c-14.55-28.81-29.13-57.6-43.68-86.4
	c-0.8-1.59-1.48-3.24-2.53-5.57c2.45,0,4.23,0,6.01,0c44.32,0,88.64,0.07,132.96-0.11c4.3-0.02,6.41,1.33,8.32,5.13
	c18.84,37.64,37.88,75.17,56.88,112.73c0.59,1.18,1.26,2.31,2.33,4.26c1.06-1.79,1.9-3.05,2.58-4.39
	c19.04-37.72,38.08-75.44,57.07-113.18c1.31-2.61,2.41-4.55,6.1-4.54c45.65,0.16,91.31,0.1,136.96,0.12c0.99,0,1.97,0.15,3.72,0.29
	c-0.85,1.91-1.49,3.52-2.26,5.05c-43.59,86.27-87.2,172.52-130.7,258.83c-1.35,2.69-2.09,5.99-2.1,9.01
	c-0.14,37.99-0.09,75.98-0.09,113.97C1035.14,713.46,1035.14,715.45,1035.14,718.11z"/>
</svg>
