<?xml version="1.0" encoding="utf-8"?>
<!-- Generator: Adobe Illustrator 26.0.1, SVG Export Plug-In . SVG Version: 6.00 Build 0)  -->
<svg version="1.1" id="Layer_1" xmlns="http://www.w3.org/2000/svg" xmlns:xlink="http://www.w3.org/1999/xlink" x="0px" y="0px"
	 viewBox="0 0 1920 1080" style="enable-background:new 0 0 1920 1080;" xml:space="preserve">
<style type="text/css">
	.st0{fill:#FFFFFF;}
</style>
<path class="st0" d="M-346.2,387.9c17.2-0.1,34.3-0.2,51.5-0.3c8.5,0,17-0.2,25.5,0.1c4.6,0.2,6-1.4,6-6
	c-0.2-34.2-0.1-68.3-0.1-102.5c0-7.3,0-7.3,7.2-7.3c39.2,0,78.3,0,117.5,0c7.3,0,7.5,0.2,7.5,7.6c0,33.5,0,67,0,100.5
	c0,7.6,0,7.6,7.8,7.6c34.5,0,69,0,103.5,0c6.9,0,6.9,0,6.9,7c0,27.7-0.1,55.3,0.1,83c0,5-1.5,6.6-6.5,6.6c-35-0.2-70-0.1-105-0.1
	c-6.7,0-6.8,0-6.7,6.6c0,43.7-0.3,87.3,0.3,131c0.2,11.2,2.2,22.6,5.2,33.4c5.5,19.5,20,29,39.5,31.8c14.9,2.2,29.6,0.4,44.3-1.4
	c4.1-0.5,8.5-0.2,12.4-1.4c5.4-1.6,10.6-4.3,16.2-6.7c0.1,1.3,0.3,2.9,0.3,4.5c0,29.2-0.1,58.3,0.1,87.5c0,4.5-1.4,6.4-5.9,7.3
	c-15.4,2.8-30.6,7.3-46.1,8.9c-44.7,4.4-89,2.3-131.1-15.6c-25-10.6-45.2-26.8-57.2-51.9c-6.9-14.5-10.1-30-10.1-46
	c-0.1-60,0-120,0-180c0-7.9,0-7.9-7.9-7.9c-25,0-50-0.1-75-0.2C-346.2,451.9-346.2,419.9-346.2,387.9z"/>
<path class="st0" d="M1546.8,739.6c-8.5,10.6-17.8,20.3-29.5,27.3c-18.4,11.1-38.7,17.2-59.8,20c-42.2,5.6-81.9-2.2-118.5-24.3
	c-25.1-15.2-41.3-37.8-53.1-64c-12.9-28.7-19.3-59-21.3-90.4c-2.2-34.6-1-69,8.2-102.6c8-29.3,20.7-56.4,42.4-78.2
	c26.7-26.9,59.6-41.4,97.1-45.6c33.4-3.7,65.7,0.7,95.9,15.3c13.4,6.5,25.6,15.4,37.9,23.9c4.1,2.8,6.5,7.9,9.8,11.8
	c1.8,2.2,4,4.1,6,6.2c0.4-0.2,0.9-0.4,1.3-0.6c0.2-1.9,0.5-3.8,0.5-5.7c0-14.3,0.1-28.7,0-43c-0.1-4.4,1.5-5.8,5.8-5.8
	c31.7,0.1,63.3,0.1,95,0c4.4,0,5.7,1.5,5.7,5.8c-0.1,127.3,0.1,254.7-0.4,382c-0.1,30.7-4.4,61.2-15,90.3
	c-16.8,46.1-49.1,77.3-93.7,96.3c-25.1,10.6-51.4,16-78.5,18.1c-44.6,3.4-88.5-0.5-131.7-12c-32.8-8.8-62.9-23.7-90.9-42.8
	c-2.4-1.6-3-3.1-1.3-5.7c16.8-26.6,33.6-53.3,50.3-80c2-3.1,3.7-2.9,6.5-1.1c18,12.1,37.6,21.1,58.4,26.7
	c14.1,3.8,28.6,6.3,43.1,7.9c21.6,2.5,43.3,1.7,64.5-3.7c20.4-5.2,38.3-14.6,51.1-31.9c8.2-11.2,12.8-24,13.9-37.5
	c1.4-18.7,1.4-37.5,2-56.3C1547.8,739.8,1547.3,739.7,1546.8,739.6z M1558.9,577.5c0.1-17.6-4.8-37.6-15.4-56.1
	c-28.7-49.8-103.4-54.8-137.9-8.8c-21.1,28.1-25.6,60.3-19.1,94c8.4,43.3,36.5,71.1,76.6,74.6c30.7,2.7,56.6-7.4,75.3-32.5
	C1553.3,628.9,1559,605.8,1558.9,577.5z"/>
<path class="st0" d="M955.8,509.3c-21.2-22.3-42.3-44.4-64.1-67.3c6.6-5.2,12.7-10.2,19.2-14.8c36.7-26.4,77.4-42.7,122.4-48.1
	c40-4.8,79.2-1.5,117.2,11.9c33.9,12,56.9,36.2,72.3,68.1c12.8,26.5,18,54.7,18.1,83.8c0.3,76.3,0.2,152.7,0.4,229
	c0,5.2-1.8,6.5-6.7,6.4c-32.2-0.2-64.3-0.2-96.5,0c-4.7,0-6.5-1.4-6.4-6.3c0.3-11.2,0.1-22.3,0.1-33.5c0-1.8,0-3.5,0-5.3
	c-0.4-0.1-0.8-0.3-1.2-0.4c-1.4,1.5-2.9,3-4.2,4.6c-24.6,30.4-57,45.6-95.3,49.6c-33.1,3.5-65.3,0.1-95.5-14.7
	c-42.4-20.8-65.3-54.5-65.9-102.3c-0.4-27.6,6.8-52.8,24.3-74.4c14.7-18.2,33.7-30.6,55-39.7c30.5-13.1,62.6-19.9,95.5-22.1
	c26.9-1.8,53.9-1.6,80.9-2.3c6.5-0.2,6.7-0.2,6.4-6.9c-1.1-28-22-52.6-52-59.7c-32.3-7.6-62.4-1-90.3,16.6
	c-11.3,7.1-21.9,15.2-30.8,25.3C958,507.8,957.1,508.3,955.8,509.3z M1128.4,606.4c-19.8,0.7-38.9,0.8-58,2.2
	c-13.2,0.9-26.4,3.2-39.5,5.5c-18.2,3.2-31.3,14.1-41.3,29.1c-13.5,20-9.5,39.4,11.1,52.1c5.4,3.3,11.7,5.9,17.9,7.4
	c22.8,5.4,44.6,1.2,65.9-7.5c12.1-5,22.4-12.4,30.5-22.7C1130.7,653,1129.2,630.1,1128.4,606.4z"/>
<path class="st0" d="M1896.8,785.7c-53.4-1-95.7-11.7-131.9-40.7c-32.6-26.1-53.7-59.9-64.5-100c-17.1-63.7-9.9-124.5,25.3-180.6
	c30.2-48.2,74.8-75.3,130.7-83.8c40.7-6.2,80-1.1,117.7,15.8c49,21.9,81.3,59,99,109.4c7.9,22.5,12.1,45.8,12.5,69.6
	c0.7,46.6-10.2,90.4-36.4,129.3c-27.2,40.4-65.9,64.4-112.8,75.2C1921,783.5,1904.9,784.6,1896.8,785.7z M1801.1,582.3
	c1,8.6,1.4,17.3,3.1,25.7c8.2,39.3,35.6,69.9,75.3,73.3c31.4,2.7,63.3-8.7,80.5-40.9c13.2-24.7,16.2-51.3,11.5-78.6
	c-6.8-39.3-33.1-73.2-75.5-77.2c-29.9-2.9-61.2,7.5-79.1,37.3C1805.9,540.5,1801.6,560.8,1801.1,582.3z"/>
<path class="st0" d="M898.9,387.6c-2.4,6.4-4.3,11.7-6.4,16.9c-35.3,89.8-70.7,179.6-106,269.3c-12.9,32.9-25.9,65.7-38.6,98.7
	c-1.7,4.5-4.1,5.9-8.8,5.9c-38.7-0.2-77.3-0.2-116,0c-4.4,0-6.8-1.2-8.6-5.5c-47.6-116.5-95.3-232.9-143-349.3
	c-4.1-10-8.3-20-12.4-30.1c-0.6-1.5-1.1-3.1-1.9-5.4c2.3-0.2,4-0.5,5.7-0.5c38.8,0,77.7,0.1,116.5-0.1c4.7,0,6.7,1.8,8.2,5.9
	c21.9,58.9,43.9,117.7,65.8,176.6c9.6,25.8,19.2,51.5,28.8,77.3c0.5,1.4,0.9,3,1.9,4c0.6,0.6,2.8,0.5,3.3-0.1c1-1.2,1.3-3,1.9-4.6
	c28.3-84,56.7-168,84.9-252c1.8-5.3,4.2-7.2,9.8-7.1c35.8,0.3,71.7,0.1,107.5,0.1C893.6,387.6,895.5,387.6,898.9,387.6z"/>
<path class="st0" d="M140.8,446.3c9.5-11.8,18.8-24,28.8-35.5c16.7-19.2,39.1-27.1,63.6-29.9c17.5-2,34.9-1.6,52.2,1.8
	c3.8,0.8,5.6,2.3,5.6,6.6c-0.1,33.2-0.1,66.3-0.1,99.5c0,1.3-0.3,2.6-0.5,4.6c-3.4-0.7-6.4-1.3-9.4-1.9c-22.6-4.6-45.4-7.8-68.4-3.5
	c-42.7,7.9-64,30.3-70.3,69c-2.2,13.6-4,27.4-4.2,41.2c-0.7,58.7-0.7,117.3-1,176c0,7.8,0,7.8-7.7,7.8c-35.7,0-71.3,0-107,0
	c-7.5,0-7.6-0.2-7.6-7.5c0-126.5,0-253,0-379.6c0-7.3,0.1-7.3,7.2-7.3c37.3,0,74.7,0,112,0c6.6,0,6.8,0.2,6.8,6.7
	c0,15.8,0,31.7,0,47.5C140.8,443.6,140.8,445.4,140.8,446.3z"/>
<path class="st0" d="M441.2,583c0,62.3,0,124.7,0,187c0,8.4,0,8.4-8.6,8.4c-34.3,0-68.7,0-103,0c-7,0-7.1,0-7.1-6.8
	c0-125.7,0-251.3,0-377c0-6.7,0.1-6.9,6.6-6.9c35.2,0,70.3,0,105.5,0c6.5,0,6.6,0.1,6.6,6.8C441.2,457.3,441.2,520.1,441.2,583z"/>
<path class="st0" d="M380.7,346.2c-34.3,0.1-64.9-30.3-64.9-64.3c0-34.8,29.3-64,64.1-64.1c35.4-0.1,64.8,29.1,64.9,64.5
	C444.9,317.1,415.8,346.1,380.7,346.2z"/>
<path class="st0" d="M2076.9,442.1c-1.4-31.6,25.2-64.2,64.1-63.8c40.8,0.4,63.2,31.3,63,64c-0.2,35.4-28.5,63.5-64,63.7
	C2105.3,506.2,2075.3,475.4,2076.9,442.1z M2191.9,447.7c-0.2-31.2-22.5-54.1-52.3-53.8c-28.5,0.3-50.9,23.3-50.7,52.1
	c0.2,27.8,23.6,51,51.2,50.8C2167.8,496.7,2192.1,473.6,2191.9,447.7z"/>
<path class="st0" d="M2154,449.4c3.4,3.9,6.7,7.8,10,11.6c3.3,3.9,6.6,7.7,10.9,12.7c-6.6,0-11.8,0.2-17-0.1
	c-1.3-0.1-2.8-1.7-3.7-2.9c-3.9-5.2-7.4-10.7-11.6-15.7c-1.3-1.6-4.1-2-6.2-2.9c-0.8,1.9-2.1,3.8-2.3,5.8c-0.4,4,0.2,8-0.3,12
	c-0.2,1.5-2.4,2.7-3.7,4c-0.2,0.2-0.6,0-1,0c-11,0.5-11,0.5-11-10.5c0-14.5,0.1-29-0.1-43.5c-0.1-4.5,1.4-6.3,6-6.1
	c8.5,0.3,17,0.3,25.5,0c7.8-0.2,13.3,3.2,16.3,10c3,7,0.9,13.4-4.1,18.9C2159.5,445,2156.9,446.9,2154,449.4z M2138.5,439.3
	c2.6-0.5,5.3-0.6,7.8-1.5c3.6-1.4,4.4-4.4,3-7.8c-1.5-3.7-14.4-6-17.4-3.2c-0.3,0.3-0.6,0.8-0.8,1.2
	C2128.5,434.6,2131.4,439,2138.5,439.3z"/>
</svg>
